<mxfile host="app.diagrams.net" modified="2024-03-12T14:05:00.282Z" agent="Mozilla/5.0 (X11; Linux x86_64) AppleWebKit/537.36 (KHTML, like Gecko) Chrome/120.0.0.0 Safari/537.36" etag="9U_3Ekg4wcT1ituN3ENI" version="24.0.2" type="github">
  <diagram name="Page-1" id="3g98ZV-dgt91GYYXrHEH">
    <mxGraphModel dx="1120" dy="2808" grid="1" gridSize="10" guides="1" tooltips="1" connect="1" arrows="1" fold="1" page="1" pageScale="1" pageWidth="827" pageHeight="1169" background="#000000" math="0" shadow="0">
      <root>
        <mxCell id="0" />
        <mxCell id="1" parent="0" />
        <mxCell id="NYD62oI_SjLbDiSGbw5J-1" value="AWS Cloud" style="points=[[0,0],[0.25,0],[0.5,0],[0.75,0],[1,0],[1,0.25],[1,0.5],[1,0.75],[1,1],[0.75,1],[0.5,1],[0.25,1],[0,1],[0,0.75],[0,0.5],[0,0.25]];outlineConnect=0;html=1;whiteSpace=wrap;fontSize=12;fontStyle=0;container=1;pointerEvents=0;collapsible=0;recursiveResize=0;shape=mxgraph.aws4.group;grIcon=mxgraph.aws4.group_aws_cloud_alt;strokeColor=#d6b656;fillColor=#fff2cc;verticalAlign=top;align=left;spacingLeft=30;dashed=0;" parent="1" vertex="1">
          <mxGeometry x="80" y="-2245" width="880" height="490" as="geometry" />
        </mxCell>
        <mxCell id="NYD62oI_SjLbDiSGbw5J-2" value="Region" style="points=[[0,0],[0.25,0],[0.5,0],[0.75,0],[1,0],[1,0.25],[1,0.5],[1,0.75],[1,1],[0.75,1],[0.5,1],[0.25,1],[0,1],[0,0.75],[0,0.5],[0,0.25]];outlineConnect=0;html=1;whiteSpace=wrap;fontSize=12;fontStyle=0;container=1;pointerEvents=0;collapsible=0;recursiveResize=0;shape=mxgraph.aws4.group;grIcon=mxgraph.aws4.group_region;strokeColor=#b85450;fillColor=#f8cecc;verticalAlign=top;align=left;spacingLeft=30;dashed=1;" parent="1" vertex="1">
          <mxGeometry x="120" y="-2200" width="760" height="400" as="geometry" />
        </mxCell>
        <mxCell id="NYD62oI_SjLbDiSGbw5J-100" value="" style="sketch=0;points=[[0,0,0],[0.25,0,0],[0.5,0,0],[0.75,0,0],[1,0,0],[0,1,0],[0.25,1,0],[0.5,1,0],[0.75,1,0],[1,1,0],[0,0.25,0],[0,0.5,0],[0,0.75,0],[1,0.25,0],[1,0.5,0],[1,0.75,0]];outlineConnect=0;fontColor=#232F3E;fillColor=#ED7100;strokeColor=#ffffff;dashed=0;verticalLabelPosition=bottom;verticalAlign=top;align=center;html=1;fontSize=12;fontStyle=0;aspect=fixed;shape=mxgraph.aws4.resourceIcon;resIcon=mxgraph.aws4.ec2;" parent="NYD62oI_SjLbDiSGbw5J-2" vertex="1">
          <mxGeometry x="140" y="290" width="70" height="70" as="geometry" />
        </mxCell>
        <mxCell id="NYD62oI_SjLbDiSGbw5J-102" value="terraformInstance1" style="text;html=1;align=center;verticalAlign=middle;resizable=0;points=[];autosize=1;strokeColor=none;fillColor=#FFFFFF;" parent="NYD62oI_SjLbDiSGbw5J-2" vertex="1">
          <mxGeometry x="130" y="370" width="120" height="30" as="geometry" />
        </mxCell>
        <mxCell id="NYD62oI_SjLbDiSGbw5J-103" value="VPC" style="points=[[0,0],[0.25,0],[0.5,0],[0.75,0],[1,0],[1,0.25],[1,0.5],[1,0.75],[1,1],[0.75,1],[0.5,1],[0.25,1],[0,1],[0,0.75],[0,0.5],[0,0.25]];outlineConnect=0;html=1;whiteSpace=wrap;fontSize=12;fontStyle=0;container=1;pointerEvents=0;collapsible=0;recursiveResize=0;shape=mxgraph.aws4.group;grIcon=mxgraph.aws4.group_vpc2;strokeColor=#d79b00;fillColor=#ffe6cc;verticalAlign=top;align=left;spacingLeft=30;dashed=0;" parent="NYD62oI_SjLbDiSGbw5J-2" vertex="1">
          <mxGeometry x="380" y="105" width="260" height="285" as="geometry" />
        </mxCell>
        <mxCell id="RPEiviZ-JrxbQuUH53qm-11" style="edgeStyle=orthogonalEdgeStyle;rounded=0;orthogonalLoop=1;jettySize=auto;html=1;exitX=0.5;exitY=1;exitDx=0;exitDy=0;fillColor=#dae8fc;strokeColor=#6c8ebf;" parent="NYD62oI_SjLbDiSGbw5J-103" source="NYD62oI_SjLbDiSGbw5J-104" target="RPEiviZ-JrxbQuUH53qm-6" edge="1">
          <mxGeometry relative="1" as="geometry" />
        </mxCell>
        <mxCell id="NYD62oI_SjLbDiSGbw5J-104" value="Public subnet" style="points=[[0,0],[0.25,0],[0.5,0],[0.75,0],[1,0],[1,0.25],[1,0.5],[1,0.75],[1,1],[0.75,1],[0.5,1],[0.25,1],[0,1],[0,0.75],[0,0.5],[0,0.25]];outlineConnect=0;gradientColor=none;html=1;whiteSpace=wrap;fontSize=12;fontStyle=0;container=1;pointerEvents=0;collapsible=0;recursiveResize=0;shape=mxgraph.aws4.group;grIcon=mxgraph.aws4.group_security_group;grStroke=0;strokeColor=#7AA116;fillColor=#F2F6E8;verticalAlign=top;align=left;spacingLeft=30;fontColor=#248814;dashed=0;" parent="NYD62oI_SjLbDiSGbw5J-103" vertex="1">
          <mxGeometry x="30" y="60" width="91" height="75" as="geometry" />
        </mxCell>
        <mxCell id="RPEiviZ-JrxbQuUH53qm-15" value="10.0.1.0/24&lt;div&gt;10.0.2.0/24&lt;/div&gt;" style="text;html=1;align=center;verticalAlign=middle;resizable=0;points=[];autosize=1;strokeColor=none;fillColor=none;" parent="NYD62oI_SjLbDiSGbw5J-104" vertex="1">
          <mxGeometry x="6" y="35" width="80" height="40" as="geometry" />
        </mxCell>
        <mxCell id="NYD62oI_SjLbDiSGbw5J-105" value="Private subnet" style="points=[[0,0],[0.25,0],[0.5,0],[0.75,0],[1,0],[1,0.25],[1,0.5],[1,0.75],[1,1],[0.75,1],[0.5,1],[0.25,1],[0,1],[0,0.75],[0,0.5],[0,0.25]];outlineConnect=0;gradientColor=none;html=1;whiteSpace=wrap;fontSize=12;fontStyle=0;container=1;pointerEvents=0;collapsible=0;recursiveResize=0;shape=mxgraph.aws4.group;grIcon=mxgraph.aws4.group_security_group;grStroke=0;strokeColor=#00A4A6;fillColor=#E6F6F7;verticalAlign=top;align=left;spacingLeft=30;fontColor=#147EBA;dashed=0;" parent="NYD62oI_SjLbDiSGbw5J-103" vertex="1">
          <mxGeometry x="150" y="60" width="90" height="75" as="geometry" />
        </mxCell>
        <mxCell id="RPEiviZ-JrxbQuUH53qm-16" value="10.0.3.0/24&lt;div&gt;10.0.4.0/24&lt;/div&gt;" style="text;html=1;align=center;verticalAlign=middle;resizable=0;points=[];autosize=1;strokeColor=none;fillColor=none;" parent="NYD62oI_SjLbDiSGbw5J-105" vertex="1">
          <mxGeometry x="5" y="35" width="80" height="40" as="geometry" />
        </mxCell>
        <mxCell id="RPEiviZ-JrxbQuUH53qm-5" value="" style="outlineConnect=0;dashed=0;verticalLabelPosition=bottom;verticalAlign=top;align=center;html=1;shape=mxgraph.aws3.internet_gateway;fillColor=#F58534;gradientColor=none;" parent="NYD62oI_SjLbDiSGbw5J-103" vertex="1">
          <mxGeometry x="140" y="215" width="50" height="65" as="geometry" />
        </mxCell>
        <object label="" id="RPEiviZ-JrxbQuUH53qm-6">
          <mxCell style="sketch=0;outlineConnect=0;fontColor=#232F3E;gradientColor=none;fillColor=#8C4FFF;strokeColor=none;dashed=0;verticalLabelPosition=bottom;verticalAlign=top;align=center;html=1;fontSize=12;fontStyle=0;aspect=fixed;pointerEvents=1;shape=mxgraph.aws4.route_table;" parent="NYD62oI_SjLbDiSGbw5J-103" vertex="1">
            <mxGeometry x="31" y="160" width="56.45" height="55" as="geometry" />
          </mxCell>
        </object>
        <mxCell id="RPEiviZ-JrxbQuUH53qm-2" value="" style="sketch=0;points=[[0,0,0],[0.25,0,0],[0.5,0,0],[0.75,0,0],[1,0,0],[0,1,0],[0.25,1,0],[0.5,1,0],[0.75,1,0],[1,1,0],[0,0.25,0],[0,0.5,0],[0,0.75,0],[1,0.25,0],[1,0.5,0],[1,0.75,0]];outlineConnect=0;fontColor=#232F3E;fillColor=#C925D1;strokeColor=#ffffff;dashed=0;verticalLabelPosition=bottom;verticalAlign=top;align=center;html=1;fontSize=12;fontStyle=0;aspect=fixed;shape=mxgraph.aws4.resourceIcon;resIcon=mxgraph.aws4.rds;" parent="NYD62oI_SjLbDiSGbw5J-103" vertex="1">
          <mxGeometry x="188.5" y="160" width="51.5" height="51.5" as="geometry" />
        </mxCell>
        <mxCell id="RPEiviZ-JrxbQuUH53qm-23" value="RDS" style="text;html=1;align=center;verticalAlign=middle;resizable=0;points=[];autosize=1;strokeColor=none;fillColor=none;" parent="NYD62oI_SjLbDiSGbw5J-103" vertex="1">
          <mxGeometry x="189.25" y="205" width="50" height="30" as="geometry" />
        </mxCell>
        <mxCell id="RPEiviZ-JrxbQuUH53qm-24" value="IG" style="text;html=1;align=center;verticalAlign=middle;resizable=0;points=[];autosize=1;strokeColor=none;fillColor=none;" parent="NYD62oI_SjLbDiSGbw5J-103" vertex="1">
          <mxGeometry x="145" y="255" width="40" height="30" as="geometry" />
        </mxCell>
        <mxCell id="RPEiviZ-JrxbQuUH53qm-25" value="route table" style="text;html=1;align=center;verticalAlign=middle;resizable=0;points=[];autosize=1;strokeColor=none;fillColor=none;" parent="NYD62oI_SjLbDiSGbw5J-103" vertex="1">
          <mxGeometry x="19.220000000000027" y="215" width="80" height="30" as="geometry" />
        </mxCell>
        <mxCell id="RPEiviZ-JrxbQuUH53qm-4" value="" style="sketch=0;outlineConnect=0;fontColor=#232F3E;gradientColor=none;fillColor=#ED7100;strokeColor=none;dashed=0;verticalLabelPosition=bottom;verticalAlign=top;align=center;html=1;fontSize=12;fontStyle=0;aspect=fixed;pointerEvents=1;shape=mxgraph.aws4.auto_scaling2;" parent="NYD62oI_SjLbDiSGbw5J-2" vertex="1">
          <mxGeometry x="280" y="304" width="42" height="42" as="geometry" />
        </mxCell>
        <mxCell id="RPEiviZ-JrxbQuUH53qm-3" value="" style="outlineConnect=0;dashed=0;verticalLabelPosition=bottom;verticalAlign=top;align=center;html=1;shape=mxgraph.aws3.iam;fillColor=#759C3E;gradientColor=none;" parent="NYD62oI_SjLbDiSGbw5J-2" vertex="1">
          <mxGeometry x="280" y="210" width="38" height="81" as="geometry" />
        </mxCell>
        <mxCell id="RPEiviZ-JrxbQuUH53qm-1" value="Security group" style="fillColor=#ffe6cc;strokeColor=#d79b00;verticalAlign=top;fontStyle=0;whiteSpace=wrap;html=1;" parent="NYD62oI_SjLbDiSGbw5J-2" vertex="1">
          <mxGeometry x="110" y="60" width="130" height="130" as="geometry" />
        </mxCell>
        <mxCell id="RPEiviZ-JrxbQuUH53qm-13" value="terrraform_vpc" style="text;html=1;align=center;verticalAlign=middle;resizable=0;points=[];autosize=1;strokeColor=none;fillColor=#FFFFFF;" parent="NYD62oI_SjLbDiSGbw5J-2" vertex="1">
          <mxGeometry x="440" y="75" width="100" height="30" as="geometry" />
        </mxCell>
        <mxCell id="RPEiviZ-JrxbQuUH53qm-14" value="terraform_SG2" style="text;html=1;align=center;verticalAlign=middle;resizable=0;points=[];autosize=1;strokeColor=none;fillColor=#FFFFFF;" parent="NYD62oI_SjLbDiSGbw5J-2" vertex="1">
          <mxGeometry x="125" y="30" width="100" height="30" as="geometry" />
        </mxCell>
        <mxCell id="RPEiviZ-JrxbQuUH53qm-17" style="edgeStyle=orthogonalEdgeStyle;rounded=0;orthogonalLoop=1;jettySize=auto;html=1;exitX=0.5;exitY=1;exitDx=0;exitDy=0;entryX=0.5;entryY=0;entryDx=0;entryDy=0;entryPerimeter=0;fillColor=#dae8fc;strokeColor=#6c8ebf;" parent="NYD62oI_SjLbDiSGbw5J-2" source="RPEiviZ-JrxbQuUH53qm-1" target="NYD62oI_SjLbDiSGbw5J-100" edge="1">
          <mxGeometry relative="1" as="geometry" />
        </mxCell>
        <mxCell id="RPEiviZ-JrxbQuUH53qm-18" style="edgeStyle=orthogonalEdgeStyle;rounded=0;orthogonalLoop=1;jettySize=auto;html=1;exitX=0.26;exitY=0.5;exitDx=0;exitDy=0;exitPerimeter=0;entryX=1;entryY=0.25;entryDx=0;entryDy=0;entryPerimeter=0;fillColor=#dae8fc;strokeColor=#6c8ebf;" parent="NYD62oI_SjLbDiSGbw5J-2" source="RPEiviZ-JrxbQuUH53qm-3" target="NYD62oI_SjLbDiSGbw5J-100" edge="1">
          <mxGeometry relative="1" as="geometry" />
        </mxCell>
        <mxCell id="RPEiviZ-JrxbQuUH53qm-19" style="edgeStyle=orthogonalEdgeStyle;rounded=0;orthogonalLoop=1;jettySize=auto;html=1;entryX=1;entryY=0.75;entryDx=0;entryDy=0;entryPerimeter=0;fillColor=#dae8fc;strokeColor=#6c8ebf;" parent="NYD62oI_SjLbDiSGbw5J-2" source="RPEiviZ-JrxbQuUH53qm-4" target="NYD62oI_SjLbDiSGbw5J-100" edge="1">
          <mxGeometry relative="1" as="geometry" />
        </mxCell>
        <mxCell id="RPEiviZ-JrxbQuUH53qm-20" value="Iam:&amp;nbsp;Terraform-Role" style="text;html=1;align=center;verticalAlign=middle;resizable=0;points=[];autosize=1;strokeColor=none;fillColor=#FFFFFF;" parent="NYD62oI_SjLbDiSGbw5J-2" vertex="1">
          <mxGeometry x="246" y="180" width="130" height="30" as="geometry" />
        </mxCell>
        <mxCell id="RPEiviZ-JrxbQuUH53qm-21" value="Terraform-ASG" style="text;html=1;align=center;verticalAlign=middle;resizable=0;points=[];autosize=1;strokeColor=none;fillColor=#FFFFFF;" parent="NYD62oI_SjLbDiSGbw5J-2" vertex="1">
          <mxGeometry x="251" y="355" width="100" height="30" as="geometry" />
        </mxCell>
        <mxCell id="NYD62oI_SjLbDiSGbw5J-99" value="" style="sketch=0;outlineConnect=0;fillColor=#00FF00;strokeColor=#82b366;dashed=0;verticalLabelPosition=bottom;verticalAlign=top;align=center;html=1;fontSize=12;fontStyle=0;aspect=fixed;pointerEvents=1;shape=mxgraph.aws4.bucket;" parent="1" vertex="1">
          <mxGeometry x="1012.5" y="-2030" width="75" height="78" as="geometry" />
        </mxCell>
        <mxCell id="NYD62oI_SjLbDiSGbw5J-101" value="anuj-terraform-bucket" style="text;html=1;align=center;verticalAlign=middle;resizable=0;points=[];autosize=1;strokeColor=none;fillColor=none;" parent="1" vertex="1">
          <mxGeometry x="1087.5" y="-2020" width="140" height="30" as="geometry" />
        </mxCell>
      </root>
    </mxGraphModel>
  </diagram>
</mxfile>
